<?xml version="1.0" encoding="utf-8"?>
<!-- Generator: Adobe Illustrator 22.0.1, SVG Export Plug-In . SVG Version: 6.00 Build 0)  -->
<svg version="1.1" id="Layer_1" xmlns="http://www.w3.org/2000/svg" xmlns:xlink="http://www.w3.org/1999/xlink" x="0px" y="0px"
	 viewBox="0 0 1000 1000" style="enable-background:new 0 0 1000 1000;" xml:space="preserve">
<style type="text/css">
	.st0{fill:#0A7AFD;}
</style>
<g>
	<g>
		<polygon class="st0" points="760.5,295.7 760.5,604.6 280.6,604.6 280.6,558.2 185.8,558.2 185.8,535.1 359,535.1 359,511.9 
			237.9,511.9 237.9,488.7 280.6,488.7 280.6,423.7 341.9,423.7 341.9,400.5 219.2,400.5 219.2,377.3 280.6,377.3 280.6,332.1 
			359,332.1 359,308.9 209.8,308.9 209.8,285.8 280.6,285.8 280.6,247.1 454.9,247.1 454.9,295.7 		"/>
		<rect x="137.5" y="423.7" class="st0" width="114.5" height="23.2"/>
	</g>
	<g>
		<g>
			<path class="st0" d="M280.6,643.1h24.1v48l44.5-48h29.2l-44.7,46.6l46.7,63.2h-29l-34-46.7l-12.7,13.2v33.6h-24.1V643.1z"/>
			<path class="st0" d="M445.2,642.4h22.3l47,110.5h-25.2l-10-24.6h-46.4l-10,24.6h-24.6L445.2,642.4z M470.6,707L456,671.4
				L441.4,707H470.6z"/>
			<path class="st0" d="M544,643.1h24.1v88h54.7v21.8H544V643.1z"/>
			<path class="st0" d="M691.2,642.4h22.3l47,110.5h-25.2l-10-24.6h-46.4l-10,24.6h-24.6L691.2,642.4z M716.6,707L702,671.4
				L687.4,707H716.6z"/>
		</g>
	</g>
</g>
</svg>
