<?xml version="1.0" encoding="utf-8"?>
<!-- Generator: Adobe Illustrator 22.0.1, SVG Export Plug-In . SVG Version: 6.00 Build 0)  -->
<svg version="1.1" id="Layer_1" xmlns="http://www.w3.org/2000/svg" xmlns:xlink="http://www.w3.org/1999/xlink" x="0px" y="0px"
	 viewBox="0 0 1000 1000" style="enable-background:new 0 0 1000 1000;" xml:space="preserve">
<style type="text/css">
	.st0{fill:#0A7AFD;}
	.st1{fill:#FFFFFF;}
</style>
<g>
	<polygon class="st0" points="800,353.1 800,701.8 258.2,701.8 258.2,649.5 151.3,649.5 151.3,623.3 346.8,623.3 346.8,597.1 
		210.1,597.1 210.1,571 258.2,571 258.2,497.5 327.5,497.5 327.5,471.4 189,471.4 189,445.2 258.2,445.2 258.2,394.2 346.8,394.2 
		346.8,368 178.4,368 178.4,341.9 258.2,341.9 258.2,298.2 455.1,298.2 455.1,353.1 	"/>
	<rect x="96.8" y="497.5" class="st0" width="129.3" height="26.2"/>
</g>
<g>
	<path class="st1" d="M609.7,540.8h28.2v56.1l52-56.1H724l-52.2,54.4l54.6,73.8h-33.9l-39.7-54.6l-14.8,15.4V669h-28.2V540.8z"/>
</g>
</svg>
