<?xml version="1.0" encoding="utf-8"?>
<!-- Generator: Adobe Illustrator 22.0.1, SVG Export Plug-In . SVG Version: 6.00 Build 0)  -->
<svg version="1.1" id="Layer_1" xmlns="http://www.w3.org/2000/svg" xmlns:xlink="http://www.w3.org/1999/xlink" x="0px" y="0px"
	 viewBox="0 0 1000 1000" style="enable-background:new 0 0 1000 1000;" xml:space="preserve">
<style type="text/css">
	.st0{fill:#FFFFFF;}
	.st1{fill:#0A7AFD;}
</style>
<g>
	<g>
		<path class="st0" d="M609.7,443.5h28.2v56.1l52-56.1H724l-52.2,54.4l54.6,73.8h-33.9l-39.7-54.6l-14.8,15.4v39.2h-28.2V443.5z"/>
	</g>
	<g>
		<g>
			<polygon class="st1" points="800,249.2 800,597.9 258.2,597.9 258.2,545.6 151.3,545.6 151.3,519.4 346.8,519.4 346.8,493.3 
				210.1,493.3 210.1,467.1 258.2,467.1 258.2,393.6 327.5,393.6 327.5,367.5 189,367.5 189,341.3 258.2,341.3 258.2,290.3 
				346.8,290.3 346.8,264.1 178.4,264.1 178.4,238 258.2,238 258.2,194.4 455.1,194.4 455.1,249.2 			"/>
			<rect x="96.8" y="393.6" class="st1" width="129.3" height="26.2"/>
		</g>
		<g>
			<g>
				<path class="st1" d="M258.2,641.4h27.3v54.2l50.3-54.2h32.9L318.2,694l52.7,71.3h-32.7l-38.4-52.7l-14.3,14.9v37.9h-27.3V641.4z
					"/>
				<path class="st1" d="M444.1,640.5h25.1l53.1,124.8h-28.5l-11.3-27.8h-52.4l-11.3,27.8H391L444.1,640.5z M472.7,713.4l-16.5-40.2
					l-16.5,40.2H472.7z"/>
				<path class="st1" d="M555.6,641.4h27.3v99.3h61.8v24.6h-89V641.4z"/>
				<path class="st1" d="M721.8,640.5h25.1L800,765.3h-28.5l-11.3-27.8h-52.4l-11.3,27.8h-27.8L721.8,640.5z M750.4,713.4L734,673.3
					l-16.5,40.2H750.4z"/>
			</g>
		</g>
	</g>
	<g>
		<path class="st0" d="M609.7,436.9h28.2V493l52-56.1H724l-52.2,54.4l54.6,73.8h-33.9l-39.7-54.6l-14.8,15.4v39.2h-28.2V436.9z"/>
	</g>
</g>
</svg>
